<svg id="svg" version="1.1" xmlns="http://www.w3.org/2000/svg" xmlns:xlink="http://www.w3.org/1999/xlink" width="400" height="406.58775090066905" viewBox="0, 0, 400,406.58775090066905"><g id="svgg"><path id="path0" d="M126.694 60.784 C 126.537 61.131,126.256 61.796,126.071 62.262 C 125.886 62.728,125.538 63.509,125.298 63.997 C 125.059 64.486,124.862 64.986,124.862 65.107 C 124.862 65.229,124.793 65.401,124.709 65.489 C 124.624 65.578,124.357 66.125,124.115 66.705 C 123.873 67.285,123.485 68.176,123.252 68.685 C 123.020 69.194,122.829 69.651,122.829 69.702 C 122.829 69.752,122.572 70.348,122.257 71.026 C 121.942 71.703,121.628 72.448,121.559 72.681 C 121.489 72.914,121.372 73.181,121.298 73.274 C 121.224 73.368,121.000 73.863,120.800 74.376 C 120.601 74.888,120.297 75.612,120.125 75.985 C 119.275 77.825,118.763 78.982,118.763 79.061 C 118.763 79.109,118.535 79.643,118.255 80.247 C 117.975 80.851,117.747 81.383,117.747 81.429 C 117.747 81.475,117.550 81.946,117.309 82.476 C 117.068 83.006,116.769 83.668,116.645 83.947 C 116.520 84.227,116.184 84.976,115.897 85.611 C 115.610 86.247,115.375 86.806,115.375 86.854 C 115.375 86.903,115.146 87.436,114.867 88.040 C 114.587 88.644,114.358 89.166,114.358 89.199 C 114.358 89.233,114.130 89.755,113.850 90.359 C 113.571 90.963,113.342 91.496,113.342 91.545 C 113.342 91.593,113.107 92.152,112.820 92.788 C 112.317 93.901,112.133 94.322,111.629 95.510 L 111.395 96.061 99.747 96.061 L 88.098 96.061 88.098 112.407 L 88.098 128.753 92.630 128.799 L 97.162 128.844 97.269 129.606 C 97.385 130.439,97.807 133.116,98.096 134.858 C 98.197 135.464,98.393 136.684,98.531 137.569 C 98.670 138.454,98.898 139.903,99.037 140.788 C 99.273 142.284,99.440 143.363,100.048 147.310 C 100.177 148.149,100.361 149.293,100.458 149.852 C 100.555 150.411,100.746 151.593,100.881 152.478 C 101.017 153.363,101.246 154.831,101.390 155.739 C 101.534 156.648,101.770 158.134,101.914 159.043 C 102.058 159.951,102.292 161.457,102.434 162.389 C 103.016 166.197,103.170 167.179,103.339 168.149 C 103.435 168.708,103.626 169.890,103.762 170.775 C 103.996 172.305,104.171 173.421,104.784 177.298 C 105.057 179.028,105.334 180.849,105.799 183.967 C 105.943 184.933,106.103 185.791,106.154 185.873 C 106.207 185.959,103.206 186.023,99.121 186.023 L 91.995 186.023 91.995 186.404 C 91.995 186.614,92.115 187.357,92.262 188.056 C 92.409 188.755,92.637 189.956,92.768 190.725 C 92.899 191.494,93.125 192.790,93.270 193.605 C 93.414 194.420,93.651 195.773,93.795 196.612 C 93.939 197.450,94.158 198.708,94.282 199.407 C 94.406 200.106,94.623 201.364,94.765 202.202 C 94.906 203.041,95.107 204.147,95.212 204.659 C 95.316 205.172,95.511 206.220,95.645 206.989 C 95.894 208.428,96.199 210.162,96.658 212.749 C 96.803 213.564,97.032 214.879,97.168 215.671 C 97.439 217.256,97.802 219.270,98.098 220.839 C 98.204 221.398,98.394 222.465,98.520 223.211 C 98.645 223.956,98.867 225.233,99.012 226.049 C 99.634 229.547,99.815 230.575,100.050 231.936 C 100.186 232.728,100.374 233.757,100.466 234.223 C 100.558 234.689,100.754 235.756,100.900 236.595 C 101.047 237.433,101.277 238.748,101.412 239.517 C 101.546 240.285,101.764 241.543,101.897 242.312 C 102.029 243.081,102.255 244.378,102.400 245.193 C 102.545 246.009,102.775 247.305,102.911 248.073 C 103.048 248.842,103.247 249.928,103.354 250.487 C 103.461 251.046,103.649 252.075,103.772 252.774 C 104.151 254.936,104.545 257.204,104.786 258.619 C 104.913 259.365,105.135 260.642,105.280 261.457 C 105.425 262.273,105.655 263.569,105.791 264.338 C 105.928 265.106,106.127 266.192,106.234 266.751 C 106.426 267.754,106.605 268.758,107.155 271.919 C 107.309 272.804,107.545 274.157,107.680 274.926 C 107.815 275.694,108.033 276.952,108.165 277.721 C 108.298 278.490,108.495 279.576,108.603 280.136 C 108.712 280.695,108.901 281.724,109.024 282.423 C 109.525 285.279,109.825 286.983,110.053 288.268 C 110.185 289.013,110.381 290.180,110.489 290.861 L 110.686 292.098 116.745 291.978 L 122.804 291.858 122.908 292.520 C 122.965 292.883,123.087 293.600,123.179 294.113 C 123.271 294.625,123.424 295.578,123.520 296.230 C 123.615 296.883,123.798 298.102,123.926 298.941 C 124.055 299.780,124.276 301.228,124.419 302.160 C 124.952 305.648,125.038 306.188,125.293 307.629 C 125.436 308.442,125.669 309.869,125.809 310.801 C 125.950 311.732,126.179 313.219,126.318 314.104 C 126.571 315.707,126.881 317.724,127.321 320.627 C 127.448 321.465,127.637 322.609,127.742 323.168 C 127.846 323.727,128.039 324.909,128.170 325.794 C 128.302 326.679,128.526 328.147,128.669 329.055 C 128.812 329.964,129.045 331.451,129.188 332.359 C 129.331 333.268,129.557 334.735,129.691 335.620 C 130.164 338.752,130.455 340.581,131.201 345.108 C 131.398 346.298,131.799 348.952,131.970 350.191 C 132.067 350.889,132.221 351.842,132.312 352.308 C 132.404 352.774,132.602 353.994,132.753 355.019 C 132.903 356.044,133.175 357.759,133.356 358.831 C 133.537 359.903,133.801 361.542,133.941 362.474 C 134.082 363.405,134.312 364.892,134.452 365.777 C 134.593 366.662,134.751 367.711,134.805 368.107 L 134.902 368.827 192.377 368.827 L 249.851 368.827 249.946 368.022 C 249.998 367.579,250.126 366.722,250.230 366.116 C 250.441 364.883,250.797 362.640,251.185 360.102 C 251.794 356.113,251.924 355.272,252.173 353.706 C 252.317 352.798,252.547 351.349,252.684 350.487 C 252.820 349.625,253.014 348.424,253.115 347.819 C 253.342 346.457,253.723 344.040,254.065 341.804 C 254.652 337.962,254.803 336.982,255.057 335.366 C 255.497 332.567,255.798 330.684,255.991 329.521 C 256.234 328.059,256.626 325.574,256.925 323.592 C 257.059 322.706,257.283 321.258,257.424 320.373 C 257.565 319.488,257.793 318.039,257.932 317.154 C 258.071 316.269,258.266 315.049,258.367 314.443 C 258.608 312.995,259.003 310.495,259.290 308.598 C 259.418 307.759,259.647 306.273,259.801 305.294 C 259.954 304.316,260.189 302.810,260.324 301.948 C 260.736 299.301,261.083 297.118,261.232 296.230 C 261.311 295.765,261.465 294.773,261.574 294.028 C 261.684 293.283,261.811 292.490,261.858 292.266 L 261.942 291.860 267.593 291.981 C 273.096 292.099,273.247 292.094,273.348 291.773 C 273.406 291.592,273.568 290.767,273.709 289.940 C 274.257 286.718,274.466 285.525,274.624 284.710 C 274.776 283.922,274.884 283.318,275.559 279.457 C 275.842 277.836,276.193 275.848,276.582 273.655 C 276.726 272.840,276.956 271.525,277.092 270.733 C 277.228 269.941,277.414 268.911,277.504 268.446 C 277.656 267.658,277.764 267.053,278.439 263.193 C 278.578 262.401,278.805 261.105,278.945 260.313 C 279.085 259.521,279.314 258.225,279.453 257.433 C 280.001 254.330,280.210 253.158,280.390 252.181 C 280.800 249.960,281.081 248.388,281.314 247.014 C 281.757 244.402,282.548 239.927,282.767 238.797 C 282.857 238.331,283.052 237.264,283.200 236.425 C 283.347 235.587,283.569 234.329,283.693 233.630 C 283.817 232.931,284.045 231.635,284.199 230.750 C 284.353 229.864,284.592 228.492,284.730 227.700 C 284.868 226.908,285.087 225.650,285.215 224.905 C 285.344 224.159,285.538 223.092,285.647 222.533 C 285.755 221.974,285.945 220.945,286.067 220.246 C 286.594 217.250,286.870 215.678,287.082 214.485 C 287.206 213.787,287.433 212.490,287.587 211.605 C 288.014 209.153,288.361 207.198,288.519 206.353 C 288.597 205.934,288.789 204.867,288.945 203.981 C 289.101 203.096,289.330 201.800,289.454 201.101 C 289.578 200.402,289.806 199.106,289.962 198.221 C 290.118 197.336,290.346 196.040,290.470 195.341 C 290.594 194.642,290.823 193.346,290.979 192.461 C 291.135 191.576,291.324 190.508,291.400 190.089 C 291.522 189.417,291.677 188.512,292.002 186.573 L 292.095 186.023 285.292 186.023 C 278.914 186.023,278.497 186.005,278.602 185.730 C 278.664 185.569,278.822 184.673,278.954 183.739 C 279.085 182.805,279.313 181.279,279.460 180.347 C 279.607 179.416,279.838 177.929,279.974 177.044 C 280.110 176.158,280.300 174.977,280.397 174.418 C 280.493 173.859,280.683 172.677,280.819 171.792 C 280.955 170.906,281.175 169.496,281.308 168.657 C 281.441 167.819,281.674 166.332,281.825 165.354 C 282.243 162.655,282.561 160.644,282.764 159.424 C 282.864 158.818,283.058 157.618,283.193 156.756 C 283.328 155.894,283.556 154.445,283.699 153.537 C 283.842 152.628,284.068 151.161,284.202 150.275 C 284.335 149.390,284.562 147.923,284.706 147.014 C 284.850 146.106,285.079 144.657,285.214 143.795 C 285.350 142.933,285.543 141.732,285.644 141.127 C 285.864 139.802,286.210 137.609,286.580 135.197 C 286.729 134.219,286.970 132.694,287.113 131.809 C 287.257 130.923,287.411 129.875,287.457 129.479 L 287.539 128.759 292.436 128.759 L 297.332 128.759 297.332 112.410 L 297.332 96.061 284.994 96.061 L 272.657 96.061 272.264 95.172 C 272.048 94.682,271.725 93.939,271.547 93.520 C 271.368 93.100,271.155 92.605,271.072 92.418 C 270.989 92.232,270.760 91.698,270.563 91.233 C 270.123 90.189,270.034 89.985,269.415 88.607 C 269.143 88.001,268.789 87.200,268.629 86.828 C 268.469 86.455,268.271 85.997,268.189 85.811 C 268.107 85.625,267.880 85.091,267.683 84.625 C 267.487 84.159,267.258 83.626,267.175 83.439 C 267.093 83.253,266.840 82.681,266.614 82.169 C 266.388 81.656,266.041 80.879,265.842 80.441 C 265.643 80.004,265.481 79.606,265.481 79.556 C 265.481 79.507,265.297 79.065,265.072 78.573 C 264.529 77.388,263.707 75.502,262.428 72.512 C 261.851 71.161,261.241 69.750,261.073 69.377 C 260.905 69.005,260.372 67.785,259.889 66.667 C 258.540 63.546,257.866 62.007,257.421 61.033 L 257.014 60.144 191.997 60.148 L 126.980 60.153 126.694 60.784 M251.338 73.147 C 251.972 74.615,252.697 76.273,252.949 76.832 C 253.201 77.391,253.961 79.144,254.638 80.729 C 255.314 82.313,256.077 84.066,256.332 84.625 C 256.587 85.184,257.349 86.938,258.025 88.522 C 258.700 90.106,259.387 91.669,259.550 91.995 C 259.713 92.321,259.899 92.759,259.964 92.969 L 260.082 93.350 192.037 93.350 L 123.992 93.350 124.107 92.989 C 124.170 92.790,124.944 90.979,125.826 88.965 C 126.708 86.951,127.853 84.312,128.370 83.100 C 128.888 81.889,129.486 80.517,129.698 80.051 C 130.022 79.342,132.830 72.869,133.612 71.029 L 133.846 70.479 192.016 70.479 L 250.185 70.479 251.338 73.147 M286.828 112.325 L 286.828 118.255 192.630 118.255 L 98.433 118.255 98.433 112.438 C 98.433 109.239,98.484 106.571,98.546 106.509 C 98.608 106.446,140.997 106.396,192.743 106.396 L 286.828 106.396 286.828 112.325 M164.761 128.911 C 181.906 128.985,200.394 129.020,205.845 128.987 C 253.170 128.702,276.894 128.595,276.964 128.666 C 277.039 128.740,276.065 135.220,274.877 142.567 C 274.651 143.964,273.090 153.875,271.408 164.591 C 269.726 175.307,268.269 184.551,268.169 185.133 L 267.987 186.192 198.740 186.192 C 160.654 186.192,126.627 186.142,123.126 186.080 L 116.760 185.968 116.677 185.276 C 116.600 184.623,116.434 183.528,115.802 179.500 C 115.656 178.568,115.429 177.120,115.299 176.281 C 114.756 172.809,114.491 171.148,114.338 170.267 C 114.188 169.406,114.069 168.643,113.422 164.422 C 113.169 162.764,112.802 160.425,112.401 157.899 C 112.260 157.014,112.036 155.565,111.903 154.680 C 111.770 153.795,111.582 152.613,111.485 152.054 C 111.388 151.495,111.198 150.313,111.063 149.428 C 110.797 147.695,110.452 145.494,110.034 142.863 C 109.770 141.199,109.519 139.583,109.041 136.468 C 108.898 135.536,108.702 134.316,108.605 133.757 C 108.509 133.198,108.319 131.976,108.185 131.043 C 108.050 130.109,107.889 129.214,107.828 129.055 C 107.694 128.705,110.914 128.643,124.947 128.725 C 129.699 128.752,147.615 128.836,164.761 128.911 M279.643 196.823 C 279.590 197.080,277.944 206.362,275.986 217.450 C 274.028 228.539,272.312 238.221,272.172 238.967 C 272.033 239.712,271.385 243.371,270.731 247.099 C 270.078 250.826,269.429 254.504,269.289 255.273 C 269.149 256.041,268.920 257.299,268.782 258.068 C 268.434 259.993,266.338 271.808,266.159 272.850 C 266.079 273.316,265.889 274.384,265.737 275.222 C 265.585 276.061,265.388 277.205,265.299 277.764 C 265.211 278.323,265.067 279.123,264.981 279.543 C 264.894 279.962,264.775 280.601,264.717 280.962 L 264.610 281.619 253.821 281.503 C 247.888 281.439,233.960 281.278,222.872 281.144 C 197.562 280.838,186.337 280.838,161.033 281.144 C 149.945 281.278,136.058 281.440,130.173 281.503 L 119.474 281.619 119.293 280.708 C 119.125 279.864,118.568 276.766,118.002 273.528 C 117.871 272.783,117.690 271.753,117.599 271.241 C 117.507 270.729,117.233 269.166,116.988 267.768 C 116.743 266.370,116.390 264.388,116.202 263.363 C 116.015 262.338,115.754 260.889,115.624 260.144 C 115.284 258.202,114.608 254.377,114.187 252.012 C 113.988 250.894,113.750 249.560,113.659 249.047 C 113.568 248.535,113.385 247.505,113.253 246.760 C 113.120 246.014,112.898 244.756,112.759 243.964 C 112.301 241.353,111.672 237.805,111.392 236.256 C 111.240 235.417,111.006 234.102,110.871 233.334 C 110.737 232.565,110.512 231.288,110.372 230.496 C 110.233 229.704,110.009 228.427,109.875 227.658 C 109.741 226.889,109.479 225.421,109.293 224.396 C 108.880 222.129,108.490 219.923,107.496 214.231 C 107.366 213.486,106.608 209.218,105.811 204.747 C 105.014 200.277,104.363 196.560,104.363 196.488 C 104.363 196.416,143.822 196.357,192.051 196.357 L 279.739 196.357 279.643 196.823 M206.438 291.234 C 214.452 291.325,227.826 291.477,236.159 291.572 C 244.492 291.667,251.327 291.763,251.349 291.785 C 251.388 291.826,251.246 292.772,250.480 297.586 C 250.242 299.077,249.939 300.983,249.805 301.821 C 249.671 302.660,249.408 304.337,249.220 305.548 C 248.838 308.004,248.674 309.040,248.298 311.393 C 248.157 312.279,247.882 314.032,247.688 315.290 C 247.218 318.341,246.546 322.589,246.335 323.846 C 246.241 324.405,245.781 327.340,245.313 330.368 C 244.844 333.397,244.313 336.789,244.131 337.908 C 243.950 339.026,243.188 343.867,242.439 348.666 C 241.689 353.465,241.030 357.644,240.974 357.954 L 240.872 358.517 192.533 358.462 C 160.603 358.426,144.136 358.350,144.026 358.238 C 143.935 358.145,143.742 357.268,143.598 356.290 C 143.455 355.311,143.217 353.748,143.071 352.817 C 142.924 351.885,142.699 350.436,142.571 349.598 C 141.924 345.372,141.804 344.607,141.642 343.668 C 141.545 343.109,141.354 341.927,141.217 341.042 C 140.951 339.323,140.594 337.042,140.183 334.435 C 140.044 333.549,139.820 332.101,139.687 331.216 C 139.270 328.454,138.948 326.426,138.759 325.371 C 138.659 324.812,138.461 323.592,138.319 322.660 C 138.177 321.728,137.947 320.241,137.807 319.356 C 137.668 318.471,137.443 317.022,137.308 316.137 C 137.172 315.252,136.954 313.842,136.822 313.003 C 136.690 312.164,136.459 310.678,136.309 309.699 C 136.158 308.721,135.960 307.501,135.867 306.989 C 135.774 306.476,135.582 305.294,135.440 304.363 C 135.297 303.431,135.066 301.944,134.926 301.059 C 134.621 299.128,134.295 296.999,133.952 294.706 C 133.813 293.774,133.647 292.775,133.584 292.486 C 133.472 291.969,133.483 291.959,134.239 291.855 C 134.870 291.769,165.457 291.340,182.296 291.182 C 184.672 291.160,187.798 291.125,189.242 291.104 C 190.686 291.084,198.424 291.142,206.438 291.234 " stroke="none" fill="#040404" fill-rule="evenodd"></path><path id="path1" d="M339.433 71.676 C 337.904 71.932,334.943 73.834,334.943 74.560 C 334.943 74.632,334.848 74.791,334.731 74.914 C 333.792 75.907,333.593 77.121,333.590 81.872 L 333.587 86.235 329.223 86.235 C 325.209 86.235,324.783 86.263,323.928 86.588 C 323.417 86.782,322.865 86.981,322.702 87.031 C 322.539 87.081,322.406 87.183,322.406 87.260 C 322.406 87.336,322.262 87.443,322.086 87.499 C 319.194 88.417,317.732 95.875,319.716 99.584 C 321.420 102.767,323.262 103.509,329.479 103.513 L 333.587 103.515 333.587 107.846 C 333.587 113.406,333.774 114.065,335.961 116.238 C 337.542 117.808,338.716 118.170,342.228 118.170 C 346.163 118.170,348.009 117.367,349.559 114.978 C 350.726 113.180,350.752 113.041,350.828 108.047 L 350.897 103.515 354.940 103.515 C 360.918 103.515,362.667 102.876,364.440 100.042 C 366.033 97.495,366.031 92.233,364.436 89.708 C 362.604 86.809,361.084 86.235,355.248 86.235 L 350.897 86.235 350.826 81.703 C 350.749 76.727,350.672 76.310,349.524 74.648 C 347.696 72.000,344.003 70.913,339.433 71.676 M116.223 129.225 C 116.223 129.481,116.303 130.148,116.399 130.707 C 116.495 131.266,116.687 132.448,116.826 133.333 C 116.966 134.219,117.153 135.400,117.243 135.959 C 117.334 136.518,117.519 137.700,117.654 138.585 C 117.790 139.471,118.018 140.938,118.161 141.847 C 118.303 142.756,118.530 144.204,118.664 145.066 C 119.183 148.397,119.475 150.226,119.631 151.122 C 119.787 152.012,119.941 152.997,120.522 156.798 C 120.809 158.676,121.180 161.046,121.568 163.490 C 121.709 164.375,121.931 165.824,122.062 166.709 C 122.194 167.594,122.386 168.776,122.490 169.335 C 122.595 169.894,122.787 171.076,122.918 171.961 C 123.050 172.846,123.274 174.314,123.417 175.222 C 123.560 176.131,123.790 177.599,123.928 178.484 C 124.067 179.369,124.299 180.837,124.443 181.745 C 124.588 182.654,124.789 183.988,124.891 184.710 L 125.076 186.023 196.549 186.023 C 253.612 186.023,268.023 185.980,268.027 185.811 C 268.033 185.599,268.319 183.670,268.781 180.729 C 268.916 179.867,269.136 178.437,269.270 177.552 C 269.404 176.667,269.715 174.684,269.962 173.147 C 270.208 171.609,270.596 169.170,270.825 167.726 C 271.054 166.281,271.314 164.642,271.402 164.083 C 271.491 163.524,271.680 162.342,271.821 161.457 C 272.044 160.072,272.530 156.988,273.543 150.529 C 273.675 149.691,273.902 148.242,274.049 147.310 C 274.196 146.379,274.384 145.121,274.468 144.515 C 274.552 143.909,274.698 142.994,274.793 142.482 C 274.942 141.676,275.268 139.627,276.422 132.232 C 276.553 131.393,276.729 130.288,276.813 129.776 C 276.898 129.263,276.935 128.811,276.896 128.770 C 276.858 128.730,256.414 128.788,231.467 128.899 C 199.522 129.041,178.016 129.052,158.746 128.935 C 143.698 128.844,127.973 128.767,123.803 128.764 L 116.222 128.759 116.223 129.225 M187.621 291.192 C 185.565 291.218,174.455 291.337,162.932 291.457 C 151.410 291.577,141.946 291.713,141.901 291.758 C 141.803 291.855,142.071 293.764,143.077 300.127 C 143.224 301.059,143.455 302.546,143.591 303.431 C 143.727 304.316,143.917 305.498,144.014 306.057 C 144.111 306.616,144.296 307.759,144.425 308.598 C 145.032 312.545,145.199 313.624,145.435 315.121 C 146.017 318.811,146.233 320.202,146.459 321.728 C 146.590 322.613,146.782 323.795,146.885 324.354 C 146.988 324.913,147.189 326.133,147.331 327.065 C 147.654 329.182,148.013 331.501,148.343 333.587 C 148.483 334.473,148.702 335.883,148.829 336.722 C 149.148 338.825,149.591 341.636,149.764 342.651 C 149.903 343.467,150.205 345.366,150.707 348.581 C 150.838 349.420,151.065 350.868,151.211 351.800 C 151.546 353.936,151.964 356.653,152.111 357.645 L 152.224 358.407 182.465 358.460 C 199.098 358.489,219.045 358.461,226.791 358.398 L 240.876 358.282 241.059 356.989 C 241.159 356.278,241.355 354.972,241.495 354.087 C 241.635 353.202,241.866 351.715,242.008 350.784 C 242.313 348.786,242.587 347.047,243.200 343.244 C 243.448 341.707,243.760 339.744,243.894 338.882 C 244.028 338.020,244.256 336.572,244.400 335.663 C 244.545 334.754,244.766 333.325,244.892 332.486 C 245.202 330.423,245.571 328.089,246.084 324.947 C 246.526 322.243,246.875 319.988,247.173 317.916 C 247.267 317.264,247.422 316.311,247.517 315.798 C 247.612 315.286,247.963 313.113,248.298 310.970 C 248.633 308.827,249.015 306.387,249.147 305.548 C 249.279 304.710,249.466 303.452,249.562 302.753 C 249.658 302.054,249.809 301.101,249.896 300.635 C 249.983 300.169,250.169 299.026,250.309 298.094 C 250.449 297.162,250.721 295.419,250.915 294.220 C 251.108 293.021,251.221 291.995,251.166 291.940 C 251.044 291.818,239.873 291.658,214.570 291.418 C 203.947 291.317,194.380 291.215,193.308 291.190 C 192.236 291.165,189.677 291.166,187.621 291.192 M70.817 304.210 C 70.120 304.336,68.567 304.801,67.996 305.056 C 67.703 305.187,67.406 305.294,67.338 305.294 C 66.573 305.294,63.212 308.175,62.147 309.743 C 55.009 320.255,64.929 333.958,77.001 330.261 C 87.621 327.009,89.901 313.340,80.952 306.574 C 78.500 304.720,73.922 303.652,70.817 304.210 " stroke="none" fill="#fbd105" fill-rule="evenodd"></path><path id="path2" d="M133.487 71.622 C 133.204 72.251,132.906 72.918,132.824 73.105 C 132.742 73.291,132.490 73.863,132.264 74.375 C 132.038 74.888,131.414 76.336,130.877 77.594 C 130.340 78.852,129.728 80.263,129.517 80.729 C 129.305 81.194,128.012 84.168,126.642 87.336 C 125.273 90.504,124.117 93.153,124.074 93.223 C 124.031 93.293,154.612 93.350,192.032 93.350 L 260.068 93.350 259.828 92.884 C 259.697 92.628,258.354 89.560,256.845 86.065 C 255.336 82.571,253.879 79.230,253.607 78.641 C 253.335 78.052,253.113 77.533,253.113 77.487 C 253.113 77.441,252.932 77.008,252.711 76.525 C 252.490 76.041,251.985 74.884,251.588 73.952 C 251.192 73.020,250.684 71.857,250.460 71.368 L 250.054 70.479 192.027 70.479 L 134.000 70.479 133.487 71.622 M98.602 112.410 L 98.602 118.255 192.673 118.213 L 286.743 118.170 286.787 112.368 L 286.832 106.565 192.717 106.565 L 98.602 106.565 98.602 112.410 M24.481 128.189 C 6.532 130.864,-4.328 148.668,1.554 165.777 C 2.077 167.299,3.871 170.951,4.609 171.996 C 6.328 174.433,8.242 176.545,10.080 178.032 C 10.733 178.560,11.359 179.068,11.472 179.161 C 11.586 179.255,11.778 179.413,11.900 179.513 C 13.728 181.019,18.406 183.108,21.686 183.882 C 24.375 184.517,24.898 184.572,28.208 184.569 C 31.589 184.566,32.310 184.484,35.324 183.761 C 41.779 182.211,48.386 177.537,51.760 172.134 C 52.021 171.717,52.337 171.273,52.462 171.148 C 52.587 171.023,52.690 170.818,52.690 170.692 C 52.690 170.567,52.751 170.439,52.827 170.408 C 53.229 170.243,54.935 166.137,55.736 163.405 C 56.500 160.803,56.793 154.404,56.272 151.715 C 55.458 147.516,54.095 144.003,52.098 140.957 C 50.215 138.085,45.030 132.825,44.082 132.825 C 43.986 132.825,43.883 132.768,43.851 132.698 C 43.659 132.265,38.398 129.606,37.733 129.606 C 37.604 129.606,37.445 129.553,37.380 129.488 C 37.316 129.423,37.169 129.350,37.056 129.325 C 36.866 129.283,35.278 128.882,33.376 128.396 C 32.625 128.204,25.493 128.038,24.481 128.189 M32.168 145.505 C 32.948 145.795,33.839 146.224,34.148 146.459 C 34.456 146.694,34.771 146.887,34.848 146.887 C 35.054 146.887,36.581 148.366,37.385 149.345 C 41.832 154.756,39.783 163.555,33.376 166.564 C 32.770 166.848,32.139 167.151,31.974 167.238 C 29.135 168.719,23.512 167.513,20.559 164.788 C 19.544 163.852,17.789 161.502,17.789 161.080 C 17.789 160.989,17.678 160.675,17.543 160.381 C 13.621 151.887,23.174 142.171,32.168 145.505 M104.532 196.739 C 104.532 196.910,106.119 205.975,107.343 212.791 C 107.693 214.740,108.388 218.672,108.676 220.330 C 109.058 222.528,109.764 226.488,110.050 228.039 C 110.196 228.831,110.425 230.108,110.558 230.877 C 110.935 233.053,111.294 235.107,111.572 236.679 C 111.712 237.471,111.933 238.729,112.064 239.475 C 112.195 240.220,112.427 241.516,112.580 242.355 C 113.057 244.975,113.563 247.830,114.448 252.901 C 114.964 255.864,115.187 257.124,115.460 258.619 C 115.834 260.674,115.971 261.442,116.833 266.328 C 116.973 267.120,117.196 268.378,117.328 269.123 C 117.460 269.869,117.680 271.127,117.818 271.919 C 117.955 272.711,118.191 274.045,118.343 274.884 C 118.844 277.653,118.891 277.919,119.177 279.617 C 119.333 280.543,119.505 281.372,119.559 281.460 C 119.618 281.556,120.997 281.576,123.064 281.511 C 124.939 281.451,134.401 281.328,144.091 281.237 C 153.782 281.146,168.515 280.984,176.832 280.877 C 188.228 280.730,195.677 280.730,207.073 280.877 C 215.390 280.985,230.161 281.147,239.898 281.237 C 249.636 281.328,259.138 281.451,261.015 281.511 C 264.258 281.614,264.432 281.603,264.525 281.301 C 264.616 281.006,264.789 280.073,265.403 276.578 C 266.274 271.618,266.481 270.442,267.074 267.090 C 267.305 265.786,267.618 264.032,267.770 263.194 C 268.040 261.697,268.294 260.257,268.778 257.476 C 268.912 256.707,269.478 253.524,270.036 250.402 C 270.594 247.281,271.128 244.269,271.222 243.710 C 271.316 243.151,271.934 239.682,272.595 236.002 C 273.256 232.321,273.902 228.700,274.031 227.954 C 274.679 224.203,275.223 221.126,275.916 217.281 C 276.336 214.951,276.792 212.397,276.930 211.605 C 277.067 210.813,277.286 209.555,277.417 208.810 C 277.547 208.064,277.853 206.311,278.097 204.913 C 278.342 203.515,278.767 201.123,279.042 199.596 C 279.317 198.069,279.543 196.754,279.543 196.673 C 279.543 196.591,241.045 196.527,192.037 196.527 C 122.146 196.527,104.532 196.570,104.532 196.739 M319.092 228.025 C 310.708 230.059,306.094 240.434,310.483 247.386 C 310.704 247.737,310.885 248.090,310.885 248.171 C 310.885 248.251,311.019 248.472,311.182 248.661 C 311.345 248.850,311.780 249.367,312.148 249.809 C 318.074 256.919,329.882 255.537,334.118 247.238 C 339.343 237.001,330.214 225.328,319.092 228.025 " stroke="none" fill="#fafafa" fill-rule="evenodd"></path><path id="path3" d="M117.458 128.716 C 118.184 128.747,119.328 128.747,119.999 128.715 C 120.671 128.683,120.076 128.657,118.679 128.657 C 117.281 128.658,116.732 128.684,117.458 128.716 M267.048 128.716 C 268.888 128.744,271.900 128.744,273.740 128.716 C 275.580 128.689,274.075 128.667,270.394 128.667 C 266.713 128.667,265.208 128.689,267.048 128.716 M143.467 128.886 C 144.893 128.914,147.181 128.914,148.549 128.886 C 149.918 128.857,148.751 128.834,145.955 128.834 C 143.160 128.834,142.040 128.857,143.467 128.886 M236.309 128.886 C 237.735 128.914,240.023 128.914,241.391 128.886 C 242.760 128.857,241.593 128.834,238.797 128.834 C 236.002 128.834,234.882 128.857,236.309 128.886 M178.357 129.055 C 179.778 129.083,182.103 129.083,183.524 129.055 C 184.945 129.027,183.782 129.004,180.940 129.004 C 178.098 129.004,176.936 129.027,178.357 129.055 M201.239 129.055 C 202.666 129.084,204.953 129.084,206.321 129.055 C 207.690 129.027,206.523 129.003,203.727 129.003 C 200.932 129.004,199.812 129.027,201.239 129.055 M160.808 186.150 C 180.438 186.174,212.611 186.174,232.303 186.150 C 251.995 186.126,235.934 186.107,196.612 186.107 C 157.289 186.107,141.178 186.126,160.808 186.150 M187.675 291.189 C 188.350 291.221,189.456 291.221,190.131 291.189 C 190.807 291.157,190.254 291.130,188.903 291.130 C 187.552 291.130,186.999 291.157,187.675 291.189 M193.774 291.189 C 194.449 291.221,195.555 291.221,196.230 291.189 C 196.906 291.157,196.353 291.130,195.002 291.130 C 193.651 291.130,193.098 291.157,193.774 291.189 M171.665 291.359 C 172.666 291.389,174.305 291.389,175.307 291.359 C 176.309 291.329,175.489 291.304,173.486 291.304 C 171.482 291.304,170.663 291.329,171.665 291.359 M208.589 291.359 C 209.585 291.389,211.262 291.389,212.316 291.359 C 213.369 291.329,212.554 291.305,210.504 291.305 C 208.454 291.305,207.592 291.329,208.589 291.359 M156.840 291.528 C 157.516 291.560,158.621 291.560,159.297 291.528 C 159.972 291.496,159.420 291.469,158.069 291.469 C 156.717 291.469,156.165 291.496,156.840 291.528 M224.608 291.528 C 225.284 291.560,226.389 291.560,227.065 291.528 C 227.740 291.496,227.188 291.469,225.837 291.469 C 224.485 291.469,223.933 291.496,224.608 291.528 M142.266 291.694 C 142.567 291.731,143.101 291.732,143.452 291.695 C 143.804 291.658,143.558 291.628,142.906 291.627 C 142.253 291.626,141.966 291.656,142.266 291.694 M239.178 291.698 C 240.227 291.728,241.942 291.728,242.990 291.698 C 244.039 291.668,243.181 291.644,241.084 291.644 C 238.988 291.644,238.130 291.668,239.178 291.698 M249.894 291.835 C 250.536 291.975,251.419 291.999,251.419 291.876 C 251.419 291.802,251.019 291.750,250.529 291.760 C 250.040 291.771,249.754 291.805,249.894 291.835 M230.380 358.450 C 232.366 358.477,235.568 358.477,237.496 358.450 C 239.423 358.422,237.798 358.400,233.884 358.400 C 229.970 358.400,228.394 358.423,230.380 358.450 " stroke="none" fill="#8c6404" fill-rule="evenodd"></path><path id="path4" d="M145.574 106.523 C 171.455 106.546,213.806 106.546,239.687 106.523 C 265.568 106.499,244.392 106.480,192.630 106.480 C 140.868 106.480,119.693 106.499,145.574 106.523 M185.557 280.852 C 185.906 280.888,186.478 280.888,186.828 280.852 C 187.177 280.815,186.891 280.785,186.192 280.785 C 185.493 280.785,185.208 280.815,185.557 280.852 M197.078 280.852 C 197.427 280.888,197.999 280.888,198.348 280.852 C 198.698 280.815,198.412 280.785,197.713 280.785 C 197.014 280.785,196.728 280.815,197.078 280.852 M171.407 281.020 C 171.707 281.058,172.241 281.058,172.593 281.022 C 172.944 280.985,172.698 280.954,172.046 280.954 C 171.393 280.953,171.106 280.983,171.407 281.020 M211.309 281.021 C 211.658 281.058,212.230 281.058,212.579 281.021 C 212.929 280.985,212.643 280.955,211.944 280.955 C 211.245 280.955,210.959 280.985,211.309 281.021 M138.209 281.361 C 138.607 281.397,139.217 281.396,139.564 281.360 C 139.911 281.324,139.585 281.294,138.839 281.295 C 138.094 281.295,137.810 281.325,138.209 281.361 M244.515 281.360 C 244.864 281.397,245.436 281.397,245.786 281.360 C 246.135 281.324,245.849 281.294,245.150 281.294 C 244.452 281.294,244.166 281.324,244.515 281.360 M123.969 281.528 C 124.270 281.566,124.804 281.567,125.155 281.530 C 125.507 281.493,125.260 281.463,124.608 281.462 C 123.956 281.461,123.668 281.491,123.969 281.528 M258.827 281.528 C 259.128 281.566,259.662 281.567,260.013 281.530 C 260.365 281.493,260.119 281.463,259.466 281.462 C 258.814 281.461,258.526 281.491,258.827 281.528 " stroke="none" fill="#bcbcbc" fill-rule="evenodd"></path><path id="path5" d="M136.044 196.484 C 221.447 196.599,279.712 196.599,279.712 196.485 C 279.712 196.415,240.239 196.376,191.995 196.399 C 143.751 196.422,118.573 196.461,136.044 196.484 M188.018 280.853 C 188.417 280.889,189.026 280.888,189.373 280.852 C 189.720 280.815,189.394 280.786,188.649 280.787 C 187.903 280.787,187.620 280.817,188.018 280.853 M194.706 280.852 C 195.055 280.888,195.627 280.888,195.976 280.852 C 196.326 280.815,196.040 280.785,195.341 280.785 C 194.642 280.785,194.356 280.815,194.706 280.852 M154.892 281.191 C 155.241 281.227,155.813 281.227,156.163 281.191 C 156.512 281.154,156.226 281.124,155.527 281.124 C 154.828 281.124,154.543 281.154,154.892 281.191 M227.912 281.191 C 228.261 281.227,228.833 281.227,229.183 281.191 C 229.532 281.154,229.246 281.124,228.547 281.124 C 227.848 281.124,227.562 281.154,227.912 281.191 M140.572 281.359 C 140.873 281.396,141.407 281.397,141.758 281.360 C 142.110 281.324,141.864 281.293,141.211 281.292 C 140.559 281.292,140.271 281.322,140.572 281.359 M242.143 281.360 C 242.493 281.397,243.064 281.397,243.414 281.360 C 243.763 281.324,243.477 281.294,242.778 281.294 C 242.080 281.294,241.794 281.324,242.143 281.360 M126.260 281.530 C 126.609 281.566,127.181 281.566,127.531 281.530 C 127.880 281.493,127.594 281.463,126.895 281.463 C 126.197 281.463,125.911 281.493,126.260 281.530 M256.544 281.530 C 256.893 281.566,257.465 281.566,257.814 281.530 C 258.164 281.493,257.878 281.463,257.179 281.463 C 256.480 281.463,256.194 281.493,256.544 281.530 " stroke="none" fill="#888888" fill-rule="evenodd"></path><path id="path6" d="M98.509 112.410 C 98.509 115.671,98.532 116.982,98.560 115.322 C 98.587 113.662,98.587 110.993,98.560 109.392 C 98.532 107.791,98.509 109.149,98.509 112.410 M190.985 280.854 C 191.618 280.887,192.609 280.887,193.188 280.854 C 193.766 280.821,193.249 280.794,192.037 280.794 C 190.826 280.795,190.353 280.822,190.985 280.854 M173.867 281.021 C 174.216 281.058,174.788 281.058,175.138 281.021 C 175.487 280.985,175.201 280.955,174.502 280.955 C 173.803 280.955,173.518 280.985,173.867 281.021 M208.767 281.021 C 209.117 281.058,209.689 281.058,210.038 281.021 C 210.388 280.985,210.102 280.955,209.403 280.955 C 208.704 280.955,208.418 280.985,208.767 281.021 M157.765 281.193 C 158.390 281.225,159.457 281.226,160.137 281.193 C 160.816 281.161,160.305 281.134,159.000 281.134 C 157.696 281.134,157.140 281.160,157.765 281.193 M223.761 281.193 C 224.437 281.225,225.542 281.225,226.218 281.193 C 226.893 281.161,226.341 281.135,224.989 281.135 C 223.638 281.135,223.086 281.161,223.761 281.193 M143.456 281.363 C 144.132 281.395,145.237 281.395,145.913 281.363 C 146.588 281.330,146.036 281.304,144.684 281.304 C 143.333 281.304,142.781 281.330,143.456 281.363 M237.992 281.363 C 238.668 281.395,239.773 281.395,240.449 281.363 C 241.125 281.330,240.572 281.304,239.221 281.304 C 237.870 281.304,237.317 281.330,237.992 281.363 M128.632 281.530 C 128.981 281.566,129.553 281.566,129.903 281.530 C 130.252 281.493,129.966 281.463,129.267 281.463 C 128.568 281.463,128.283 281.493,128.632 281.530 M254.172 281.530 C 254.521 281.566,255.093 281.566,255.443 281.530 C 255.792 281.493,255.506 281.463,254.807 281.463 C 254.108 281.463,253.823 281.493,254.172 281.530 " stroke="none" fill="#747474" fill-rule="evenodd"></path><path id="path7" d="M183.185 280.852 C 183.535 280.888,184.106 280.888,184.456 280.852 C 184.805 280.815,184.519 280.785,183.820 280.785 C 183.122 280.785,182.836 280.815,183.185 280.852 M199.449 280.852 C 199.799 280.888,200.371 280.888,200.720 280.852 C 201.069 280.815,200.784 280.785,200.085 280.785 C 199.386 280.785,199.100 280.815,199.449 280.852 M152.351 281.191 C 152.700 281.227,153.272 281.227,153.621 281.191 C 153.971 281.154,153.685 281.124,152.986 281.124 C 152.287 281.124,152.001 281.154,152.351 281.191 M230.284 281.191 C 230.633 281.227,231.205 281.227,231.554 281.191 C 231.904 281.154,231.618 281.124,230.919 281.124 C 230.220 281.124,229.934 281.154,230.284 281.191 M135.748 281.360 C 136.097 281.397,136.669 281.397,137.018 281.360 C 137.368 281.324,137.082 281.294,136.383 281.294 C 135.684 281.294,135.398 281.324,135.748 281.360 M246.976 281.361 C 247.375 281.397,247.984 281.396,248.331 281.360 C 248.678 281.324,248.352 281.294,247.607 281.295 C 246.861 281.295,246.578 281.325,246.976 281.361 " stroke="none" fill="#c9c9c9" fill-rule="evenodd"></path></g></svg>