<svg width="800" height="600" xmlns="http://www.w3.org/2000/svg">
 <!-- Created with Method Draw - http://github.com/duopixel/Method-Draw/ -->
 <g>
  <title>Layer 1</title>
  <polyline stroke-linecap="round" id="svg_6" points="42.35263138053569,247.64728110574262 42.35263138053569,247.0590452836387 42.35263138053569,245.294337817327 44.1173388468474,242.35315870680753 48.82322542367861,237.64727212997624 55.88205528892543,230.58844226472945 67.64677173100347,218.23549000054751 72.35265830783469,213.5296034237163 85.29384639412051,199.41194369322267 94.11738372567903,190.00017053956026 100.58797776882197,184.70604814062514 108.82327927827659,180.00016156379394 117.05858078773119,177.0589824532744 125.29388229718585,175.8825108090666 136.47036291715995,175.2942749869627 143.52919278240677,176.4707466311705 151.7644942918614,181.76486903010561 159.41155997921214,188.23546307324852 168.82333313287455,198.23547204901487 175.88216299812137,205.88253773636558 180.5880495749526,211.7648959574046 187.64687944019943,220.00019746685922 193.52923766123843,227.05902733210604 202.94101081490086,235.29432884156068 208.23513321383598,239.41197959628798 211.76454814645942,241.17668706259968 217.6469063674984,244.1178661731192 222.35279294432962,244.7061019952231 228.82338698747253,245.294337817327 234.11750938640762,245.294337817327 239.99986760744667,242.35315870680753 246.47046165058958,239.41197959628798 252.94105569373252,235.88256466366457 259.4116497368754,231.76491390893727 264.7057721358105,227.05902733210604 272.3528378231612,219.41196164475534 277.64696022209637,214.11783924582022 284.1175542652393,207.0590093805734 292.3528557746939,195.88252876059926 297.646978173629,188.82369889535244 302.35286475046024,182.35310485220953 306.47051550518756,177.0589824532744 309.41169461570706,174.7060391648588 314.11758119253824,170.0001525880276 316.4705244809539,168.8236809438198 319.9999394135773,167.647209299612 322.9411185240968,167.0589734775081 327.0587692788241,167.0589734775081 330.5881842114475,168.8236809438198 334.7058349661748,171.76486005433932 338.8234857209021,175.2942749869627 343.52937229773335,180.00016156379394 347.64702305246067,184.70604814062514 351.764673807188,190.00017053956026 358.2352678503309,198.23547204901487 365.2940977155777,208.2354810247812 371.1764559366167,215.88254671213193 377.64704997975963,222.94137657737875 384.11764402290254,228.23549897631386 390.0000022439416,233.52962137524898 393.529417176565,237.0590363078724 398.8235395755001,241.17668706259968 401.1764828639157,242.9413945289114 405.294133618643,245.294337817327 407.64707690705865,245.88257363943092 411.7647276617859,246.4708094615348 414.70590677230547,246.4708094615348 418.2353217049289,245.88257363943092 421.1765008154484,244.1178661731192 425.88238739227955,241.76492288470357 431.1765097912147,238.8237437741841 440.0000471227732,234.70609301945677 445.88240534381225,232.35314973104116 451.76476356485125,230.0002064426256 457.6471217858903,227.64726315420995 462.9412441848254,225.29431986579436 468.82360240586434,222.94137657737875 474.7059606269034,220.58843328896313 480.5883188479424,218.23549000054751 485.8824412468776,215.88254671213193 491.1765636458127,212.94136760161243 495.29421440053994,210.0001884910929 500.58833679947514,207.0590093805734 505.2942233763063,204.11783027005387 509.4118741310336,200.00017951532658 513.529524885761,195.88252876059926 520.5883547510078,187.64722725114464 527.6471846162547,180.00016156379394 532.9413070151898,174.7060391648588 539.4119010583327,168.8236809438198 543.5295518130599,165.29426601119638 548.2354383898912,161.76485107857297 551.1766175004107,159.4119077901574 553.5295607888263,158.82367196805342 555.294268255138,158.23543614594956 555.294268255138,158.23543614594956 557.6472115435536,158.23543614594956 560.5883906540731,158.23543614594956 570.0001638077356,160.58837943436515 577.0589936729824,164.11779436698856 591.76488922558,171.76486005433932 613.5296146434242,185.29428396272903 632.9413967728531,200.5884153374305 653.5296505464896,218.23549000054751 667.6473102769833,231.76491390893727 679.4120267190613,242.9413945289114 691.7649789832432,254.11787514888553 703.5296954253213,262.94141248044406 712.3532327568797,267.6472990572753 720.0002984442305,268.82377070148306 730.5885432421007,268.82377070148306 741.1767880399709,264.70611994675573 754.7062119483605,255.88258261519724 784.1180030535558,227.05902733210604 800.588606072465,202.94135862584608 816.4709732692703,87.64713749348135 795.8827194956338,94.11773153662426 755.8826835925684,105.8824479787023 730.0003074199968,112.94127784394912 704.1179312474251,120.00010770919594 681.7649700074769,124.70599428602716 657.0590654791131,128.23540921865057 647.0590565033467,129.41188086285837 637.0590475275803,129.41188086285837 635.8825758833725,129.41188086285837 633.529632594957,129.41188086285837 622.9413877970866,129.41188086285837 611.1766713550087,129.41188086285837 594.7060683360994,129.41188086285837 541.7648443467483,129.41188086285837 490.58832782370877,129.41188086285837 416.47061423861715,132.35305997337787 366.4705693597855,137.64718237231298 324.70582599040847,144.7060122375598 304.7058080388759,150.00013463649492 290.5881483083822,154.11778539122224 281.7646109768237,158.23543614594956 275.2940169336807,160.58837943436515 272.3528378231612,161.76485107857297 272.3528378231612,161.76485107857297 272.94107364526513,162.35308690067686 277.05872439999246,162.35308690067686 284.1175542652393,162.35308690067686 292.3528557746939,162.35308690067686 297.0587423515251,162.35308690067686 302.94110057256415,162.94132272278077 " opacity="0.5" stroke-width="1.5" stroke="#000" fill="none"/>
 </g>
 <g>
  <title>background</title>
  <rect fill="#fff" id="canvas_background" height="602" width="802" y="-1" x="-1"/>
  <g display="none" overflow="visible" y="0" x="0" height="100%" width="100%" id="canvasGrid">
   <rect fill="url(#gridpattern)" stroke-width="0" y="0" x="0" height="100%" width="100%"/>
  </g>
  <path d="m29.411444,145.29425c0,0 1.247892,-0.164841 4.117651,1.176468c7.868187,3.677536 16.359665,7.95575 32.35297,13.529419c30.388863,10.590515 74.146118,15.61969 88.823608,14.705902c42.600098,-2.652191 72.466187,-15.632126 100.000092,-28.235321c18.902786,-8.652451 45.477921,-22.217506 77.647141,-34.117676c19.190826,-7.099152 54.090973,-14.705627 73.529449,-15.294128c26.458496,-0.801033 49.259399,1.672424 80.000092,12.941185c34.667358,12.708176 48.695862,20.872734 69.411804,30.000023c19.296509,8.501907 37.470886,16.108353 54.705933,19.411789c16.340393,3.131958 32.344482,3.235245 47.647095,3.529419c16.46759,0.316574 31.774231,0.567688 48.823608,0c17.676392,-0.588562 34.117676,-4.117661 48.823547,-8.823547l14.705933,-7.058823" id="svg_13" fill-opacity="null" stroke-opacity="null" stroke-width="9" stroke="#000" fill="none"/>
 </g>
</svg>