<svg width="1000" height="300" xmlns="http://www.w3.org/2000/svg">
  <path d="m29.411444,145.29425c0,0 1.247892,-0.164841 4.117651,1.176468c7.868187,3.677536 16.359665,7.95575 32.35297,13.529419c30.388863,10.590515 74.146118,15.61969 88.823608,14.705902c42.600098,-2.652191 72.466187,-15.632126 100.000092,-28.235321c18.902786,-8.652451 45.477921,-22.217506 77.647141,-34.117676c19.190826,-7.099152 54.090973,-14.705627 73.529449,-15.294128c26.458496,-0.801033 49.259399,1.672424 80.000092,12.941185c34.667358,12.708176 48.695862,20.872734 69.411804,30.000023c19.296509,8.501907 37.470886,16.108353 54.705933,19.411789c16.340393,3.131958 32.344482,3.235245 47.647095,3.529419c16.46759,0.316574 31.774231,0.567688 48.823608,0c17.676392,-0.588562 34.117676,-4.117661 48.823547,-8.823547l14.705933,-7.058823" id="svg_13" fill-opacity="null" stroke-opacity="null" fill="none"/>
</svg>